<?xml version="1.0" ?><!DOCTYPE svg  PUBLIC '-//W3C//DTD SVG 1.1//EN'  'http://www.w3.org/Graphics/SVG/1.1/DTD/svg11.dtd'><svg style="enable-background:new 0 0 499.978 380.522;" version="1.1" viewBox="0 0 499.978 380.522" xml:space="preserve" xmlns="http://www.w3.org/2000/svg" xmlns:xlink="http://www.w3.org/1999/xlink"><g id="cloud-users"><g id="cloud-users_1_"><path d="M404.168,119.452c-4.323,0-8.539,0.381-12.679,0.938C387.821,53.279,332.268,0,264.272,0    c-55.532,0-97.795,40.413-115.28,89.938c-9.31-2.43-24.017-8.656-34.089-8.656C51.445,81.281,0,132.72,0,196.184    c0,61.078,47.691,110.871,107.856,114.545v17.907c0,1.829,0.268,3.594,0.751,5.256c1.855,7.638,9.965,22.725,64.66,23.985    c9.129,15.039,38.68,22.645,88.087,22.645c49.407,0,78.959-7.605,88.066-22.634c54.995-1.234,62.848-15.961,64.682-23.968    c0.515-1.668,0.783-3.449,0.783-5.283V310.45c47.862-5.337,85.094-45.889,85.094-95.184    C499.978,162.348,457.083,119.452,404.168,119.452z M338.875,247.287h6.265l2.842,9.531l-5.963,6.902l-6.167-6.902    L338.875,247.287z M336.923,240.029c1.674-0.166,3.412-0.246,5.149-0.246c1.801,0,3.55,0.091,5.277,0.257    c0.129,3.92-2.145,6.227-2.145,6.227c-2.08,0.139-6.253,0.065-6.253,0.065C336.644,243.725,336.923,240.029,336.923,240.029z     M341.922,237.547c-18.846,0-34.165-15.296-34.165-34.133c0-18.857,15.318-34.143,34.165-34.143    c18.826,0,34.111,15.285,34.111,34.143C376.033,222.251,360.747,237.547,341.922,237.547z M257.342,239.054h8.313l3.787,12.684    l-7.949,9.219l-8.238-9.219L257.342,239.054z M254.714,229.373c2.242-0.209,4.559-0.322,6.855-0.322    c2.381,0,4.73,0.113,7.057,0.344c0.182,5.224-2.875,8.302-2.875,8.302c-2.757,0.182-8.367,0.07-8.367,0.07    C254.349,234.28,254.714,229.373,254.714,229.373z M261.354,226.064c-25.09,0-45.503-20.36-45.503-45.497    c0-25.112,20.413-45.491,45.503-45.491c25.122,0,45.503,20.38,45.503,45.491C306.856,205.704,286.475,226.064,261.354,226.064z     M177.783,247.287h6.254l2.81,9.531l-5.931,6.902l-6.178-6.902L177.783,247.287z M175.831,240.029    c1.663-0.155,3.401-0.246,5.159-0.246c1.749,0,3.518,0.091,5.246,0.257c0.16,3.92-2.113,6.238-2.113,6.238    c-2.092,0.129-6.275,0.054-6.275,0.054C175.563,243.725,175.831,240.029,175.831,240.029z M180.787,237.547    c-18.815,0-34.133-15.296-34.133-34.133c0-18.857,15.318-34.143,34.133-34.143c18.867,0,34.175,15.285,34.175,34.143    C214.961,222.251,199.654,237.547,180.787,237.547z M181.559,339.782c-0.258,0-0.504,0-0.772,0    c-29.595,0-53.666-4.951-54.674-11.146h-0.086v-17.554v-15.624c0-24.231,15.243-44.783,36.524-52.442l18.236,24.36l18.277-24.36    c2.113,0.772,4.184,1.711,6.201,2.729c-14.642,14.658-23.706,35.007-23.706,57.512v7.825V339.782z M334.381,347.483h-0.139    c-1.319,8.244-33.414,14.857-72.888,14.857c-39.462,0-71.536-6.613-72.898-14.857h-0.129v-36.4v-7.814    c0-32.314,20.338-59.705,48.667-69.9l24.359,32.464l24.339-32.464c28.34,10.195,48.689,37.586,48.689,69.9v7.814V347.483z     M396.703,328.637h-0.097c-0.997,6.195-25.079,11.146-54.684,11.146c-0.257,0-0.493,0-0.751,0v-28.699v-7.825    c0-22.504-9.074-42.853-23.727-57.512c2.017-1.018,4.054-1.957,6.188-2.729l18.29,24.36l18.235-24.36    c21.272,7.659,36.546,28.211,36.546,52.442v15.624V328.637z" style="fill:#484C4D;"/></g></g><g id="Layer_1"/></svg>