<svg width="80px"  height="80px"  xmlns="http://www.w3.org/2000/svg" viewBox="0 0 100 100" preserveAspectRatio="xMidYMid" class="lds-blank">
    <g transform="rotate(346.667 50.0001 50.0001)">
      <animateTransform attributeName="transform" type="rotate" values="0 50 50;360 50 50" times="0;1" dur="2.7" repeatCount="indefinite"></animateTransform>
      <path d="M44.6,20.6c2.6,4.4,7,7.1,11.7,7.7c1.9-4.4,1.7-9.5-0.8-14c-2.6-4.4-7-7.1-11.7-7.7C41.9,11,42,16.2,44.6,20.6z">
        <animate attributeName="fill" calcMode="linear" values="#ffffcb;#fac090;#ff7c81;#c0f6d2;#ffffcb" keyTimes="0;0.25;0.5;0.75;1" dur="2.7" begin="-2.0250000000000004s" repeatCount="indefinite"></animate>
      </path>
      <path d="M30.6,27.3c4.4,2.6,9.6,2.7,14,0.8c-0.6-4.7-3.3-9.1-7.7-11.7s-9.6-2.7-14-0.8C23.5,20.3,26.2,24.7,30.6,27.3z">
        <animate attributeName="fill" calcMode="linear" values="#ffffcb;#fac090;#ff7c81;#c0f6d2;#ffffcb" keyTimes="0;0.25;0.5;0.75;1" dur="2.7" begin="-1.35s" repeatCount="indefinite"></animate>
      </path>
      <path d="M21.8,40c5.1,0,9.6-2.5,12.5-6.2c-2.9-3.8-7.4-6.2-12.5-6.2S12.1,30,9.3,33.8C12.1,37.6,16.7,40,21.8,40z">
        <animate attributeName="fill" calcMode="linear" values="#ffffcb;#fac090;#ff7c81;#c0f6d2;#ffffcb" keyTimes="0;0.25;0.5;0.75;1" dur="2.7" begin="-0.675s" repeatCount="indefinite"></animate>
      </path>
      <path d="M20.6,55.5c4.4-2.6,7.1-7,7.7-11.7c-4.4-1.9-9.5-1.7-14,0.8s-7.1,7-7.7,11.7C11,58.2,16.1,58,20.6,55.5z">
        <animate attributeName="fill" calcMode="linear" values="#ffffcb;#fac090;#ff7c81;#c0f6d2;#ffffcb" keyTimes="0;0.25;0.5;0.75;1" dur="2.7" begin="0s" repeatCount="indefinite"></animate>
      </path>
      <path d="M27.2,69.5c2.6-4.4,2.7-9.6,0.8-14c-4.7,0.6-9.1,3.3-11.7,7.7s-2.7,9.6-0.8,14C20.3,76.6,24.7,73.9,27.2,69.5z">
        <animate attributeName="fill" calcMode="linear" values="#ffffcb;#fac090;#ff7c81;#c0f6d2;#ffffcb" keyTimes="0;0.25;0.5;0.75;1" dur="2.7" begin="-2.0250000000000004s" repeatCount="indefinite"></animate>
      </path>
      <path d="M40,78.3c0-5.1-2.5-9.6-6.2-12.5c-3.8,2.9-6.2,7.4-6.2,12.5s2.5,9.6,6.2,12.5C37.5,87.9,40,83.4,40,78.3z">
        <animate attributeName="fill" calcMode="linear" values="#ffffcb;#fac090;#ff7c81;#c0f6d2;#ffffcb" keyTimes="0;0.25;0.5;0.75;1" dur="2.7" begin="-1.35s" repeatCount="indefinite"></animate>
      </path>
      <path d="M55.4,79.5c-2.6-4.4-7-7.1-11.7-7.7c-1.9,4.4-1.7,9.5,0.8,14c2.6,4.4,7,7.1,11.7,7.7C58.1,89.1,58,83.9,55.4,79.5z">
        <animate attributeName="fill" calcMode="linear" values="#ffffcb;#fac090;#ff7c81;#c0f6d2;#ffffcb" keyTimes="0;0.25;0.5;0.75;1" dur="2.7" begin="-0.675s" repeatCount="indefinite"></animate>
      </path>
      <path d="M69.4,72.9c-4.4-2.6-9.6-2.7-14-0.8c0.6,4.7,3.3,9.1,7.7,11.7s9.6,2.7,14,0.8C76.5,79.8,73.8,75.4,69.4,72.9z">
        <animate attributeName="fill" calcMode="linear" values="#ffffcb;#fac090;#ff7c81;#c0f6d2;#ffffcb" keyTimes="0;0.25;0.5;0.75;1" dur="2.7" begin="0s" repeatCount="indefinite"></animate>
      </path>
      <path d="M78.2,60.1c-5.1,0-9.6,2.5-12.5,6.2c2.9,3.8,7.4,6.2,12.5,6.2s9.6-2.5,12.5-6.2C87.9,62.6,83.3,60.1,78.2,60.1z">
        <animate attributeName="fill" calcMode="linear" values="#ffffcb;#fac090;#ff7c81;#c0f6d2;#ffffcb" keyTimes="0;0.25;0.5;0.75;1" dur="2.7" begin="-2.0250000000000004s" repeatCount="indefinite"></animate>
      </path>
      <path d="M79.4,44.7c-4.4,2.6-7.1,7-7.7,11.7c4.4,1.9,9.5,1.7,14-0.8c4.4-2.6,7.1-7,7.7-11.7C89,42,83.9,42.1,79.4,44.7z">
        <animate attributeName="fill" calcMode="linear" values="#ffffcb;#fac090;#ff7c81;#c0f6d2;#ffffcb" keyTimes="0;0.25;0.5;0.75;1" dur="2.7" begin="-1.35s" repeatCount="indefinite"></animate>
      </path>
      <path d="M72.8,30.7c-2.6,4.4-2.7,9.6-0.8,14c4.7-0.6,9.1-3.3,11.7-7.7c2.6-4.4,2.7-9.6,0.8-14C79.7,23.5,75.3,26.2,72.8,30.7z">
        <animate attributeName="fill" calcMode="linear" values="#ffffcb;#fac090;#ff7c81;#c0f6d2;#ffffcb" keyTimes="0;0.25;0.5;0.75;1" dur="2.7" begin="-0.675s" repeatCount="indefinite"></animate>
      </path>
      <path d="M60,21.9c0,5.1,2.5,9.6,6.2,12.5c3.8-2.9,6.2-7.4,6.2-12.5s-2.5-9.6-6.2-12.5C62.5,12.2,60,16.8,60,21.9z">
        <animate attributeName="fill" calcMode="linear" values="#ffffcb;#fac090;#ff7c81;#c0f6d2;#ffffcb" keyTimes="0;0.25;0.5;0.75;1" dur="2.7" begin="0s" repeatCount="indefinite"></animate>
      </path>
    </g>
  </svg>