<?xml version="1.0" ?><!DOCTYPE svg  PUBLIC '-//W3C//DTD SVG 1.1//EN'  'http://www.w3.org/Graphics/SVG/1.1/DTD/svg11.dtd'><svg style="enable-background:new 0 0 499.973 369.988;" version="1.1" viewBox="0 0 499.973 369.988" xml:space="preserve" xmlns="http://www.w3.org/2000/svg" xmlns:xlink="http://www.w3.org/1999/xlink"><g id="cloud-connect-laptop"><g id="cloud-connect-laptop_1_"><path d="M404.152,311.088c52.924,0,95.821-42.902,95.821-95.822c0-52.915-42.896-95.81-95.821-95.81    c-4.312,0-8.517,0.37-12.679,0.927C387.815,53.285,332.272,0,264.256,0C208.75,0,166.46,40.407,148.992,89.948    c-9.311-2.441-24.011-8.662-34.1-8.662C51.439,81.286,0,132.715,0,196.19c0,62.011,49.165,112.41,110.613,114.684v11.135H98.69    c-10.404,0-18.852,8.442-18.852,18.863c0,14.121,10.206,29.118,29.118,29.118h282.056c18.922,0,29.123-14.997,29.123-29.118    c0-10.421-8.453-18.863-18.868-18.863H389.36v-10.919C395.453,311.088,400.472,311.088,404.152,311.088z M250.455,269.662    c14.089,0,27.348-5.498,37.313-15.468l5.127,5.138c-11.328,11.338-26.409,17.574-42.44,17.574    c-16.037,0-31.101-6.237-42.45-17.574l5.116-5.138C223.103,264.164,236.366,269.662,250.455,269.662z M222.963,244.373    l5.133-5.122c5.974,5.981,13.901,9.252,22.359,9.252c8.463,0,16.385-3.271,22.36-9.252l5.127,5.122    c-7.337,7.354-17.11,11.387-27.488,11.387C240.067,255.761,230.3,251.727,222.963,244.373z M300.929,227.979    c-13.001,0-75.504,0-95.542,0c-20.954,0-37.94-16.98-37.94-37.951c0-1.786,0.294-3.513,0.542-5.25    c0.644-4.667,2.14-9.027,4.328-12.98c6.463-11.682,18.756-19.689,33.071-19.689c3.341,0,8.162,2.044,11.289,2.832    c5.745-16.379,19.705-29.702,38.048-29.702c22.456,0,40.723,17.629,42.011,39.759c1.276-0.21,2.681-0.316,4.194-0.316    c7.498,0,14.288,2.735,19.705,7.117c4.248,3.433,7.615,7.836,9.643,12.98c1.395,3.582,2.242,7.47,2.242,11.552    C332.519,213.787,318.339,227.979,300.929,227.979z M401.266,340.871c0,0,0,10.255-10.255,10.255c-10.266,0-271.791,0-282.056,0    S98.69,340.871,98.69,340.871h31.397H369.87H401.266z M370.502,322.571c0,1.099-0.236,2.108-0.633,3.073H130.086    c-0.386-0.966-0.622-1.974-0.622-3.073v-11.483V180.009c0-4.5,3.69-8.212,8.205-8.212h27.187c-1.829,4.044-2.928,8.42-3.47,12.98    h-18.943v126.311v2.607h215.09v-2.607V184.777h-20.369c-1.534-4.817-3.959-9.198-7.155-12.98h32.277    c4.516,0,8.216,3.711,8.216,8.212v131.079V322.571z" style="fill:#484C4D;"/></g></g><g id="Layer_1"/></svg>