<?xml version="1.0" ?><!DOCTYPE svg  PUBLIC '-//W3C//DTD SVG 1.1//EN'  'http://www.w3.org/Graphics/SVG/1.1/DTD/svg11.dtd'><svg style="enable-background:new 0 0 499.974 403.535;" version="1.1" viewBox="0 0 499.974 403.535" xml:space="preserve" xmlns="http://www.w3.org/2000/svg" xmlns:xlink="http://www.w3.org/1999/xlink"><g id="cloud-gear"><g id="cloud-gear_1_"><path d="M404.146,119.452c-4.317,0-8.527,0.365-12.684,0.923C387.804,53.289,332.251,0,264.25,0    c-55.516,0-97.8,40.418-115.258,89.932c-9.327-2.446-24.022-8.646-34.11-8.646C51.428,81.286,0,132.709,0,196.19    s51.428,114.882,114.882,114.882c3.808,0,8.119,0,12.861,0c1.609,6.779,6.344,12.249,12.566,15.017    c-1.453,6.415-0.112,13.28,4.135,18.642l8.061,11.027c3.985,5.75,10.49,9.268,17.656,9.462c1.078,6.521,4.923,12.4,10.861,15.768    l11.702,7.123c3.55,2.274,7.654,3.496,11.939,3.496c2.768,0,5.481-0.515,8.018-1.459c3.438,6.05,9.568,10.362,16.856,11.135    l13.581,1.931l1.593,0.321h2.07c5.368,0,10.41-1.973,14.352-5.342c3.449,2.081,7.423,3.282,11.526,3.282    c2.108,0,4.178-0.321,6.173-0.901l13.296-3.496c3.089-0.751,7.256-2.511,11.289-6.779c1.421-1.609,2.607-3.39,3.524-5.256    c1.894,0.493,3.84,0.729,5.803,0.729c5.075,0,9.96-1.717,13.849-4.827l10.845-8.281c5.615-3.991,8.828-10.169,9.235-16.669    c6.908-0.923,12.963-4.912,16.412-10.919l7.085-11.65c4.043-6.071,4.596-13.708,2.022-20.316c0.986-0.579,1.85-1.33,2.735-2.038    c12.796,0,22.928,0,29.219,0c52.915,0,95.827-42.885,95.827-95.811C499.974,162.337,457.061,119.452,404.146,119.452z     M353.807,317.744c1.845,1.459,2.37,4.119,1.099,5.792l-7.541,12.379c-0.997,1.931-3.55,2.638-5.766,1.673l-19.351-8.774    c-1.583,1.802-3.186,3.604-4.865,5.278l10.448,17.978c1.206,2.081,0.75,4.698-1.068,5.857l-11.483,8.774    c-1.598,1.395-4.253,1.159-5.98-0.514l-15.06-15.447c-1.464,0.708-2.928,1.33-4.387,1.952c-0.504,0.215-1.047,0.494-1.594,0.708    l1.594,11.992l1.233,8.989c0.171,1.459-0.365,2.81-1.233,3.797c-0.547,0.579-1.202,1.072-2.022,1.223l-14.041,3.69    c-1.974,0.687-4.355-0.558-5.257-2.789l-3.143-7.851l-5.1-12.658c-1.111,0.086-2.215,0.086-3.326,0.086l-6.045,22.033    c-0.638,2.317-2.853,3.819-4.902,3.368l-14.368-2.06c-2.123-0.129-3.813-2.231-3.738-4.612l0.435-22.783    c-2.017-0.622-3.942-1.308-5.895-2.102l-14.078,17.892c-1.534,1.866-4.151,2.381-5.889,1.159l-12.374-7.552    c-1.904-0.945-2.607-3.475-1.678-5.685l9.289-20.681c-1.432-1.224-2.816-2.446-4.066-3.733l-20.407,11.306    c-2.102,1.202-4.735,0.623-5.862-1.137l-8.549-11.671c-1.399-1.609-1.109-4.27,0.623-5.92l16.889-15.983    c-0.102-0.193-0.193-0.429-0.295-0.644c-0.735-1.438-1.475-2.896-2.102-4.42l-23.55,3.218c-2.387,0.344-4.645-1.116-5.031-3.196    l-3.733-14.009c-0.761-1.995,0.51-4.376,2.725-5.278l22.246-9.031c0.097-0.043,0.253-0.086,0.327-0.108    c-0.075-1.673-0.171-3.368-0.171-5.085c-0.091,0-0.177,0-0.285,0l-23.094-6.543c-2.333-0.707-3.792-2.917-3.341-4.999    l2.214-14.309c0.183-2.124,2.28-3.819,4.656-3.776l23.995,0.687c0.059,0,0.139,0.043,0.236,0.065    c0.558-1.909,1.261-3.775,1.953-5.6c-0.038,0-0.043-0.043-0.124-0.086l-18.782-14.995c-1.905-1.523-2.36-4.119-1.132-5.879    l7.579-12.314c0.949-1.909,3.524-2.638,5.674-1.652l21.893,9.912c0.075,0,0.155,0.065,0.177,0.065    c1.26-1.395,2.525-2.79,3.855-4.119l-11.981-20.338c-1.206-2.017-0.74-4.677,1.03-5.836l11.461-8.86    c1.588-1.438,4.286-1.202,5.916,0.493l16.964,17.056c0.145,0.129,0.264,0.278,0.349,0.365c1.475-0.708,2.928-1.373,4.43-2.039    l-3.803-22.976c-0.365-2.381,0.997-4.677,3.062-5.105l13.849-4.162c2.043-0.729,4.445,0.428,5.422,2.638l9.633,22.011    c0.091,0.257,0.182,0.536,0.268,0.794c1.405-0.129,2.843-0.172,4.285-0.215l6.35-22.997c0.595-2.317,2.832-3.862,4.94-3.369    l0.976,0.13l13.387,1.952c2.091,0.129,3.77,2.21,3.712,4.612l-0.43,23.942c0.43,0.108,0.847,0.279,1.303,0.429    c0.043-0.108,0.102-0.15,0.172-0.193l6.318-7.574l9.128-10.812c1.566-1.867,4.242-2.318,5.857-0.987l12.164,7.873    c1.862,1.051,2.554,3.604,1.507,5.793l-9.524,19.693c1.544,1.137,3.02,2.381,4.441,3.669l20.106-11.027    c2.113-1.116,4.688-0.579,5.814,1.223l8.506,11.735c1.363,1.673,1.025,4.29-0.696,5.921l-15.538,14.48    c1.153,2.039,2.258,4.162,3.245,6.307l21.529-2.981c2.397-0.344,4.661,1.072,5.052,3.196l3.771,13.987    c0.67,2.017-0.542,4.398-2.794,5.299l-19.753,8.046c0.311,2.553,0.456,5.083,0.52,7.68l20.601,5.449    c2.312,0.644,3.814,2.853,3.347,4.934l-1.92,14.374c-0.156,2.06-2.167,3.818-4.597,3.797l-21.313-0.258    c-0.692,2.232-1.513,4.377-2.365,6.522l8.527,6.779L353.807,317.744z" style="fill:#484C4D;"/><path d="M286.427,311.072l-8.447-6.672c-3.797,2.681-8.056,4.612-12.588,5.814    c-1.276,0.365-2.596,0.643-3.915,0.858c-1.786,0.322-3.594,0.558-5.46,0.601l-3.819,26.366c4.457,0.192,8.876-0.087,13.194-0.751    c8.791-1.395,17.099-4.569,24.463-9.161c3.33-2.08,6.467-4.376,9.364-6.973l-9.364-7.358L286.427,311.072z" style="fill:#484C4D;"/><path d="M223.473,296.291l-25.127,9.997c0.997,1.652,2.091,3.24,3.234,4.785    c8.893,12.078,21.84,21.196,37.233,25.014l3.604-25.014l0.193-1.352C234.854,307.232,228.258,302.426,223.473,296.291z" style="fill:#484C4D;"/><path d="M293.475,260.849c1.474,5.235,1.952,10.834,1.126,16.584c-0.714,4.848-2.489,9.204-4.746,13.301    c-0.725,1.352-1.347,2.832-2.237,4.098l2.237,1.759l18.369,14.481l0.134,0.107c0.033-0.021,0.037-0.064,0.07-0.107    c6.302-8.539,10.625-18.664,12.238-29.863c1.54-10.512,0.515-20.766-2.601-30.163L293.475,260.849z" style="fill:#484C4D;"/><path d="M265.393,285.543c3.54-2.639,6.05-6.651,6.709-11.371c0.956-6.478-1.866-12.55-6.709-16.24    c-2.274-1.717-4.94-2.96-7.959-3.39c-9.44-1.373-18.23,5.192-19.613,14.674c-1.33,9.462,5.202,18.214,14.663,19.609    C257.257,289.511,261.837,288.202,265.393,285.543z" style="fill:#484C4D;"/><path d="M253.921,231.716l3.846-26.345c-18.654-0.815-36.139,6.286-48.914,18.558l21.121,16.605    C236.613,235.149,244.974,231.931,253.921,231.716z" style="fill:#484C4D;"/><path d="M215.326,265.956c0.831-5.643,2.816-10.813,5.615-15.339l-20.798-16.37    c-5.519,8.132-9.369,17.527-10.861,27.932c-1.62,11.135-0.381,22.011,3.159,31.901l24.564-9.825    C215.144,278.591,214.435,272.37,215.326,265.956z" style="fill:#484C4D;"/><path d="M287.618,248.621l2.237-0.901l22.676-9.032c-5.433-9.503-13.209-17.634-22.676-23.491    c-5.664-3.497-11.983-6.221-18.751-7.895l-3.797,26.323C275.685,236.372,282.726,241.692,287.618,248.621z" style="fill:#484C4D;"/></g></g><g id="Layer_1"/></svg>