<?xml version="1.0" ?><!DOCTYPE svg  PUBLIC '-//W3C//DTD SVG 1.1//EN'  'http://www.w3.org/Graphics/SVG/1.1/DTD/svg11.dtd'><svg style="enable-background:new 0 0 499.978 399.417;" version="1.1" viewBox="0 0 499.978 399.417" xml:space="preserve" xmlns="http://www.w3.org/2000/svg" xmlns:xlink="http://www.w3.org/1999/xlink"><g id="cloud-pencil-document"><g id="cloud-pencil-document_1_"><path d="M404.147,119.452c-4.312,0-8.506,0.387-12.668,0.923C387.821,53.29,332.257,0,264.261,0    c-55.521,0-97.796,40.418-115.269,89.954c-9.321-2.446-24.017-8.668-34.1-8.668C51.434,81.286,0,132.711,0,196.191    c0,63.458,51.434,114.903,114.892,114.903c4.238,0,9.15,0,14.545,0v13.923c0,0.428,0.054,1.351,0.087,1.78    c0.16,2.424,0.654,4.806,1.619,7.401l0,0c0.204,0.623,0.44,1.223,0.858,2.145c0.279,0.558,0.976,1.823,1.309,2.36l0.59,0.923    c0.279,0.408,1.169,1.587,1.169,1.587c0.344,0.472,1.287,1.544,1.523,1.781c0.257,0.279,0.623,0.644,1.008,1.008    c0.794,0.772,1.695,1.523,2.907,2.424c0.417,0.3,0.836,0.579,1.254,0.858c0.923,0.558,1.856,1.073,2.821,1.523    c0.13,0.064,110.249,48.441,110.249,48.441c3.346,1.438,6.832,2.167,10.437,2.167h55.328    c31.386-0.043,56.947-25.594,56.958-57.001c0,0,0-19.116,0-31.322c11.542,0,20.746,0,26.591,0    c52.925,0,95.831-42.907,95.831-95.832C499.978,162.337,457.072,119.452,404.147,119.452z M382.179,262.116    c-0.129,0.193-5.256,7.187-5.396,7.358l-35.591-25.701c0.118-0.193,5.159-7.252,5.299-7.444c2.467-3.412,7.122-4.249,10.405-1.888    l23.801,17.205C383.981,254.028,384.645,258.705,382.179,262.116z M283.193,271.063h-92.174c-3.959,0-7.166-3.197-7.166-7.166    c0-3.948,3.207-7.165,7.166-7.165h92.174c3.948,0,7.176,3.217,7.176,7.165C290.369,267.865,287.141,271.063,283.193,271.063z     M290.369,294.296c0,3.948-3.228,7.165-7.176,7.165h-92.174c-3.959,0-7.166-3.217-7.166-7.165c0-3.969,3.207-7.165,7.166-7.165    h92.174C287.141,287.131,290.369,290.327,290.369,294.296z M191.019,240.706c-3.959,0-7.166-3.239-7.166-7.187    s3.207-7.165,7.166-7.165h124.933c3.98,0,7.176,3.217,7.176,7.165s-3.196,7.187-7.176,7.187H191.019z M315.952,210.306H191.019    c-3.959,0-7.166-3.196-7.166-7.144c0-3.969,3.207-7.187,7.166-7.187h124.933c3.98,0,7.176,3.218,7.176,7.187    C323.128,207.11,319.932,210.306,315.952,210.306z M294.434,308.413l3.701,2.681l31.988,23.084l-34.133,10.168l-1.448-33.252    L294.434,308.413z M304.4,311.094l-7.831-5.663l42.316-58.568l35.687,25.765l-27.76,38.466l-14.556,20.123L304.4,311.094z     M358.462,342.416c-0.021,20.895-17.001,37.886-37.886,37.907H265.27c-0.998,0-1.964-0.214-2.876-0.601l-109.582-48.162    c-0.033,0-0.043-0.022-0.076-0.022c-0.322-0.149-0.633-0.322-0.933-0.515c-0.139-0.086-0.268-0.192-0.408-0.3    c-0.172-0.129-0.312-0.236-0.45-0.365c-0.161-0.129-0.312-0.3-0.451-0.429c-0.107-0.129-0.214-0.235-0.3-0.343    c-0.139-0.171-0.29-0.365-0.418-0.558c-0.075-0.086-0.118-0.193-0.203-0.3c-0.108-0.215-0.247-0.408-0.355-0.644    c-0.054-0.086-0.064-0.193-0.107-0.301c-0.312-0.729-0.494-1.48-0.537-2.253c-0.01-0.171-0.043-0.343-0.043-0.514v-0.215    c0-0.021,0-0.021,0-0.021v-13.687V179.585c0.033-20.874,17.002-37.864,37.886-37.886h134.158    c20.885,0.022,37.865,17.012,37.886,37.886v51.037c-1.792-1.072-3.775-1.63-5.749-1.63c-3.176,0-6.307,1.33-8.582,3.775v-53.183    c-0.021-12.914-10.64-23.533-23.555-23.555H186.417c-12.893,0.022-23.533,10.641-23.555,23.555v131.509v6.757h71.686    c20.884,0.022,37.864,16.991,37.886,37.886v10.234h48.141c12.915-0.022,23.534-10.641,23.555-23.555v-20.638l7.734-10.684    l6.597-9.161v9.161V342.416z" style="fill:#484C4D;"/></g></g><g id="Layer_1"/></svg>