<?xml version="1.0" ?><!DOCTYPE svg  PUBLIC '-//W3C//DTD SVG 1.1//EN'  'http://www.w3.org/Graphics/SVG/1.1/DTD/svg11.dtd'><svg style="enable-background:new 0 0 499.968 405.467;" version="1.1" viewBox="0 0 499.968 405.467" xml:space="preserve" xmlns="http://www.w3.org/2000/svg" xmlns:xlink="http://www.w3.org/1999/xlink"><g id="cloud-safety-shield"><g id="cloud-safety-shield_1_"><path d="M404.148,119.431c-4.323,0-8.517,0.386-12.679,0.944C387.811,53.268,332.258,0,264.261,0    c-55.521,0-97.8,40.397-115.262,89.932c-9.322-2.445-24.028-8.646-34.1-8.646C51.43,81.286,0,132.689,0,196.169    s51.43,114.903,114.899,114.903c9.187,0,21.384,0,35.521,0c32.614,66.591,92.732,89.932,95.718,91.048l5.272,1.974    c2.456,0.901,5.036,1.373,7.669,1.373c2.608,0,5.181-0.472,7.788-1.438l5.118-1.909c3.046-1.137,63.114-24.564,95.713-91.048    c16.23,0,29.005,0,36.45,0c52.924,0,95.821-42.906,95.821-95.81C499.968,162.337,457.072,119.431,404.148,119.431z     M365.532,262.545c-4.044,18.685-10.545,34.69-18.247,48.526c-29.991,53.891-79.097,73.07-81.672,74.014l-5.122,1.931    c-0.456,0.15-0.934,0.257-1.411,0.257c-0.499,0-0.981-0.107-1.442-0.257l-5.111-1.931c-2.591-0.944-51.692-20.145-81.679-74.014    c-7.686-13.837-14.175-29.841-18.251-48.526c-2.06-9.525-3.438-19.415-4.097-29.391c-0.333-5.299-0.499-34.476-0.499-37.801    V184.37c0-1.823,1.191-3.412,2.949-3.926l10.539-3.025c21.201-6.072,37.291-16.412,51.477-25.573    c15.907-10.233,29.67-19.114,46.113-19.114c16.433,0,30.163,8.882,46.083,19.114c14.201,9.161,30.27,19.501,51.477,25.573    l10.566,3.025c1.738,0.514,2.939,2.102,2.939,3.926v10.984c0,3.325-0.161,32.502-0.504,37.801    C368.974,243.108,367.612,253.02,365.532,262.545z" style="fill:#484C4D;"/><path d="M298.662,163.753c-14.085-9.074-26.26-16.926-39.582-16.926c-13.354,0-25.518,7.853-39.607,16.926    c-13.929,8.967-29.729,19.158-50.967,25.229l-7.23,2.06v7.531c0,3.775,0.192,30.871,0.471,35.397    c0.606,9.118,1.866,18.128,3.739,26.796c4.054,18.707,10.78,34.389,18.701,47.733c27.187,45.823,69.101,62.236,71.396,63.094    l3.496,1.308l3.476-1.308c2.285-0.858,44.204-17.27,71.406-63.094c7.906-13.345,14.632-29.026,18.697-47.733    c1.877-8.668,3.122-17.678,3.701-26.796c0.311-4.527,0.504-31.6,0.504-35.397v-7.531l-7.241-2.06    C328.396,182.911,312.606,172.72,298.662,163.753z M322.249,308.498c-25.959,39.774-63.169,53.762-63.169,53.762v-53.762v-49.836    h-83.839c-1.727-7.916-2.949-16.348-3.534-25.358c-0.269-4.076-0.467-30.399-0.467-34.733    c43.914-12.572,66.333-41.748,87.84-41.748v76.481v25.358h83.807C338.586,278.549,331.056,295.004,322.249,308.498z" style="fill:#484C4D;"/></g></g><g id="Layer_1"/></svg>