<?xml version="1.0" ?><!DOCTYPE svg  PUBLIC '-//W3C//DTD SVG 1.1//EN'  'http://www.w3.org/Graphics/SVG/1.1/DTD/svg11.dtd'><svg style="enable-background:new 0 0 499.978 397.839;" version="1.1" viewBox="0 0 499.978 397.839" xml:space="preserve" xmlns="http://www.w3.org/2000/svg" xmlns:xlink="http://www.w3.org/1999/xlink"><g id="cloud-globe"><g id="cloud-globe_1_"><path d="M404.147,119.457c-4.312,0-8.517,0.376-12.668,0.934C387.81,53.29,332.257,0,264.261,0    c-55.521,0-97.796,40.424-115.269,89.954c-9.321-2.446-24.017-8.673-34.111-8.673C51.434,81.281,0,132.72,0,196.195    c0,63.454,51.434,114.899,114.881,114.899c3.401,0,7.252,0,11.393,0c18.46,50.522,66.88,86.746,123.731,86.746    c56.819,0,105.217-36.223,123.678-86.746c13.365,0,23.985,0,30.463,0c52.925,0,95.831-42.902,95.831-95.826    C499.978,162.348,457.072,119.457,404.147,119.457z M250.005,379.659c-46.757,0-86.886-28.238-104.338-68.565    c-5.975-13.832-9.311-29.064-9.311-45.079c0-62.767,50.866-113.649,113.649-113.649c62.74,0,113.606,50.882,113.606,113.649    c0,16.015-3.347,31.246-9.332,45.079C336.837,351.421,296.73,379.659,250.005,379.659z" style="fill:#484C4D;"/><path d="M326.358,186.236h-13.849l-0.676,3.432l-3.132,2.071l-6.554,0.697l0.343-4.152l-5.868-1.014    l1.041-4.14l-8.989,2.065l-4.826,8.286l-8.314,6.227l-0.676,7.926l8.27,2.065l4.859,2.092l2.424-2.414v-13.145h3.111v6.575h5.857    v6.891h-5.513v4.838h-13.816v4.837h-4.517l-6.19-6.21v-4.135h-7.251v6.908v3.438l-1.92,1.894l3.604,3.647l4.527-4.495l3.422,3.449    l-1.909,1.893v2.618h-2.896v11.059v3.423h7.938v-7.235l3.969-3.985l4.666-4.666l6.211,6.221v2.762l4.162,4.151h5.159l-6.383-6.383    h4.344l6.973,6.984v-5.084l6.511-6.517h6.179l4.13,4.104h-6.522l-3.808,3.807l-3.969,3.953h6.715v4.677h-26.58v-3.814h-4.848    h-3.797l-7.262,7.267h-11.392l-6.737,6.699v19.898l7.831,7.862h19.972l9.557,9.542v17.989v6.044l7.659,7.664v13.044h14.234    l6.039-6.028v-14.679h7.745v-6.044v-7.756v-14.872l10.223-10.184v-8.104h-11.253l-9.825-9.842v-6.748h4.29v4.817l7.284,7.257    h14.835v-8.984l-7.273-7.246l2.435-2.419l24.039,24.044c0.086-1.685,0.118-3.341,0.118-5.042    C360.489,234.682,347.349,206.349,326.358,186.236z" style="fill:#484C4D;"/><path d="M232.714,281.23h-10.372v-2.772h-28.984l-14.524-13.8v-6.253h14.813v5.54h4.528v-10.357    l3.271-3.282l4.87-4.837l4.108-4.152l3.271-3.297v-3.095l3.648-3.615l1.566,1.544l3.775-3.797h-5.857v-3.105h4.141v-4.837h4.162    v-11.735h-9.676v-2.086h-9.364v16.937l-3.423,1.024l-2.778-6.559l-8.281-5.862l-4.827-6.56l8.26,1.019l2.778-4.484l-2.402-2.768    l-1.051-3.453l10.383-0.676l1.341-7.263l-34.572-0.322c-10.995,11.049-19.63,24.431-25.164,39.292v21.12l2.789,0.692l3.1,12.105    l6.221,7.605v-8.657l-2.456-1.384l1.427-3.786l4.988,3.089v10.186l7.423,7.449h10.383l11.713,8.64v19.324l7.561,7.09l9.376,8.796    v38.015l15.896,14.491v-18.642l14.149-10.378v-15.527l4.859-6.935h9.332v-9.82v-15.371h-8.99L232.714,281.23z" style="fill:#484C4D;"/><path d="M196.629,180.519l4.301-4.323v-5.857h4.484v10.009h6.93v20.735h9.998v-28.684h-4.463h-8.646v-6.199    h6.221l3.637-3.626l-2.05-2.054c-12.207,3.824-23.481,9.68-33.423,17.2l2.832,2.8H196.629z" style="fill:#484C4D;"/><path d="M250.338,201.778l12.593-12.631l5.202-5.17h6.028v-12.603v-8.973h-7.927v-5.696    c-5.288-0.804-10.726-1.211-16.229-1.211c-1.287,0-2.521,0.064-3.754,0.097l-0.408,0.922v8.651h-6.919v16.911h1.04h3.819v6.575    h-5.524v14.16l5.524,5.535L250.338,201.778z" style="fill:#484C4D;"/></g></g><g id="Layer_1"/></svg>